<?xml version="1.0" encoding="iso-8859-1"?>
<!DOCTYPE svg PUBLIC "-//W3C//DTD SVG 1.1//EN" "http://www.w3.org/Graphics/SVG/1.1/DTD/svg11.dtd">
<svg 
 version="1.1" xmlns="http://www.w3.org/2000/svg" xmlns:xlink="http://www.w3.org/1999/xlink" x="0px" y="0px" width="512px"
	 height="512px" viewBox="0 0 512 512" style="enable-background:new 0 0 512 512;" xml:space="preserve"
><g fill="#3f9d2f" id="afcae5a789ccd549f9c6e2a2f819d31a"><g fill="#3f9d2f"></g><path style="display: inline; #010101;" d="M0.725,264.965c-0.1-2.978-0.225-5.955-0.225-8.966
		C0.5,114.892,114.893,0.501,256,0.501s255.5,114.391,255.5,255.498c0,3.011-0.125,5.988-0.225,8.966H359.094
		c-5.909,0-11.065,2.799-12.496,6.791l-9.822,27.317L294.533,93.367c-0.915-4.473-6.413-7.778-12.958-7.697
		c-6.491,0.073-11.894,3.485-12.609,7.972l-40.337,252.557l-37.194-181.11c-0.844-4.119-5.647-7.29-11.598-7.664
		c-5.914-0.366-11.495,2.147-13.382,6.094l-48.613,101.447H0.725z M369.162,282.896l-23.338,64.932
		c-1.497,4.158-7.086,6.994-13.166,6.774c-6.154-0.221-11.22-3.439-12.093-7.686l-37.194-181.11l-40.338,252.55
		c-0.715,4.491-6.117,7.905-12.608,7.977c-0.066,0-0.133,0-0.199,0c-6.404,0-11.852-3.273-12.759-7.697L173.64,205.215
		l-34.287,71.553c-1.751,3.659-6.679,6.129-12.227,6.129H1.918C15.358,411.362,123.975,511.499,256,511.499
		c132.025,0,240.642-100.137,254.082-228.603H369.162z"></path></g></svg>